<svg width="150" height="150" viewBox="0 0 200 200" xmlns="http://www.w3.org/2000/svg">
  <defs>
    <linearGradient id="grad1" x1="0" y1="0" x2="1" y2="1">
      <stop offset="0%" stop-color="#3b82f6"/>
      <stop offset="100%" stop-color="#2563eb"/>
    </linearGradient>
  </defs>
  <g>
    <!-- Q şeklinde konuşma balonu -->
    <path d="M100,20 
             C60,20 30,50 30,90 
             C30,130 60,160 100,160 
             C110,160 120,158 130,154 
             L150,170 
             L147,145 
             C165,130 170,110 170,90 
             C170,50 140,20 100,20 Z 
             M100,50 
             C120,50 135,65 135,85 
             C135,105 120,120 100,120 
             C80,120 65,105 65,85 
             C65,65 80,50 100,50 Z"
          fill="url(#grad1)"/>
    
    <!-- QChat yazısı -->
    <text x="100" y="190" font-family="Segoe UI, sans-serif" font-size="28" fill="#111827" text-anchor="middle">QChat</text>
  </g>
</svg>
